<svg xmlns="http://www.w3.org/2000/svg" xmlns:xlink="http://www.w3.org/1999/xlink" preserveAspectRatio="xMidYMid" width="800" height="300" viewBox="0 0 800 300">
  <defs>
    <style>
      .cls-1 {
        fill: #000;
        fill-rule: evenodd;
      }
    </style>
  </defs>
  <path d="M542.850,156.799 L542.850,178.899 L522.050,178.899 L522.050,156.699 L481.250,111.999 L507.850,111.999 L523.850,130.599 C524.382,131.199 525.082,131.983 525.950,132.949 C526.815,133.916 527.715,134.933 528.650,135.999 C529.582,137.066 530.450,138.066 531.250,138.999 C532.050,139.933 532.615,140.633 532.950,141.099 C533.615,140.166 534.582,138.899 535.850,137.299 C537.115,135.699 538.950,133.433 541.350,130.499 L556.550,111.999 L582.550,111.999 L542.850,156.799 ZM425.250,178.899 L437.750,161.699 L454.550,161.699 C456.550,161.699 458.633,161.699 460.800,161.699 C462.966,161.699 464.850,161.766 466.450,161.899 C465.516,160.699 464.433,159.183 463.200,157.349 C461.966,155.516 460.783,153.799 459.650,152.199 L447.650,134.499 L416.250,178.899 L391.750,178.899 L434.650,118.399 C436.050,116.466 437.816,114.733 439.950,113.199 C442.083,111.666 444.783,110.899 448.050,110.899 C451.183,110.899 453.800,111.616 455.900,113.049 C458.000,114.483 459.783,116.266 461.250,118.399 L503.050,178.899 L425.250,178.899 ZM320.850,178.899 L320.850,111.999 L341.550,111.999 L341.550,161.699 L393.350,161.699 L379.950,178.899 L320.850,178.899 ZM301.701,154.999 C298.866,157.133 295.416,158.799 291.351,159.999 C287.284,161.199 282.651,161.799 277.451,161.799 L242.451,161.799 L242.451,178.899 L221.851,178.899 L221.851,144.699 L279.451,144.699 C282.651,144.699 285.134,143.999 286.901,142.599 C288.666,141.199 289.551,139.333 289.551,136.999 C289.551,134.666 288.666,132.816 286.901,131.449 C285.134,130.083 282.651,129.399 279.451,129.399 L221.851,129.399 L235.551,111.999 L277.551,111.999 C282.751,111.999 287.384,112.616 291.451,113.849 C295.516,115.083 298.951,116.799 301.751,118.999 C304.551,121.199 306.684,123.833 308.151,126.899 C309.616,129.966 310.351,133.366 310.351,137.099 C310.351,140.833 309.616,144.216 308.151,147.249 C306.684,150.283 304.534,152.866 301.701,154.999 Z" class="cls-1"/>
</svg>
