<svg xmlns="http://www.w3.org/2000/svg" xmlns:xlink="http://www.w3.org/1999/xlink" preserveAspectRatio="xMidYMid" width="800" height="300" viewBox="0 0 800 300">
  <defs>
    <style>
      .cls-1 {
        fill: #000;
        fill-rule: evenodd;
      }
    </style>
  </defs>
  <path d="M550.649,134.399 L526.749,134.399 L526.749,183.899 L506.049,183.899 L506.049,134.399 L474.649,134.399 L488.049,116.999 L564.049,116.999 L550.649,134.399 ZM447.350,116.999 L468.050,116.999 L468.050,183.899 L447.350,183.899 L447.350,116.999 ZM393.651,184.999 C385.584,184.999 378.651,184.365 372.851,183.099 C367.051,181.833 362.267,179.933 358.501,177.399 C354.734,174.866 351.967,171.716 350.201,167.949 C348.434,164.183 347.551,159.766 347.551,154.699 L347.551,116.999 L368.151,116.999 L368.151,154.699 C368.151,157.166 368.484,159.233 369.151,160.899 C369.817,162.566 371.067,163.916 372.901,164.949 C374.734,165.983 377.317,166.716 380.651,167.149 C383.984,167.583 388.317,167.799 393.651,167.799 C397.651,167.799 400.984,167.566 403.651,167.099 C406.317,166.633 408.451,165.866 410.051,164.799 C411.651,163.733 412.801,162.366 413.501,160.699 C414.201,159.033 414.551,157.033 414.551,154.699 L414.551,116.999 L435.351,116.999 L435.351,154.699 C435.351,174.899 421.451,184.999 393.651,184.999 ZM285.751,161.799 L277.251,155.199 L304.251,155.199 L339.151,183.899 L280.551,183.899 C274.884,183.899 269.584,183.183 264.651,181.749 C259.717,180.316 255.434,178.199 251.801,175.399 C248.167,172.599 245.317,169.116 243.251,164.949 C241.184,160.783 240.151,155.933 240.151,150.399 C240.151,138.466 244.217,129.733 252.351,124.199 C260.484,118.666 272.717,115.899 289.051,115.899 C305.317,115.899 317.534,118.666 325.701,124.199 C333.867,129.733 337.951,138.466 337.951,150.399 C337.951,154.733 336.984,158.466 335.051,161.599 L312.851,161.599 C314.451,160.399 315.601,158.866 316.301,156.999 C317.001,155.133 317.351,152.933 317.351,150.399 C317.351,146.799 316.851,143.883 315.851,141.649 C314.851,139.416 313.234,137.683 311.001,136.449 C308.767,135.216 305.851,134.383 302.251,133.949 C298.651,133.516 294.251,133.299 289.051,133.299 C283.851,133.299 279.451,133.516 275.851,133.949 C272.251,134.383 269.334,135.216 267.101,136.449 C264.867,137.683 263.251,139.416 262.251,141.649 C261.251,143.883 260.751,146.799 260.751,150.399 C260.751,153.533 261.201,156.133 262.101,158.199 C263.001,160.266 264.301,161.933 266.001,163.199 C267.701,164.466 269.784,165.366 272.251,165.899 C274.717,166.433 277.484,166.699 280.551,166.699 L284.851,166.699 C286.184,166.699 287.567,166.716 289.001,166.749 C290.434,166.783 291.751,166.866 292.951,166.999 C291.951,166.333 290.784,165.533 289.451,164.599 C288.117,163.666 286.884,162.733 285.751,161.799 Z" class="cls-1"/>
</svg>
